<svg width="620" height="329" viewBox="0 0 620 329" fill="none" xmlns="http://www.w3.org/2000/svg">
<path fill-rule="evenodd" clip-rule="evenodd" d="M99.5 57.1316C82.0987 37.0531 40.6031 31.9963 23.2018 33.9298C4.90807 33.9298 0 51.3312 0 57.5778V166.002C0 181.848 3.00037 185.97 5.26215 189.077L5.35426 189.203C10.0313 195.634 21.8593 197.352 33.4641 199.02L34.2405 199.131C50.3236 201.441 68.329 204.026 81.6525 213.744C83.8304 215.332 85.6649 216.873 87.3255 218.268C91.5763 221.839 94.6873 224.452 99.5 224.452C104.313 224.452 107.424 221.839 111.674 218.268C113.335 216.873 115.17 215.332 117.348 213.744C130.671 204.026 148.676 201.441 164.759 199.131L165.536 199.02C177.141 197.352 188.969 195.634 193.646 189.203L193.738 189.077C196 185.97 199 181.848 199 166.002V57.5778C199 51.3312 194.092 33.9298 175.798 33.9298C158.397 31.9963 116.901 37.0531 99.5 57.1316ZM80.3279 156.877C81.9941 158.548 84.1665 159.373 86.339 159.373C88.5114 159.373 90.6838 158.527 92.3289 156.877L151.005 98.0441C154.317 94.7239 154.317 89.3312 151.005 86.011C147.694 82.6908 142.316 82.6908 139.004 86.011L86.339 138.838L59.9958 112.425C56.6844 109.104 51.3061 109.104 47.9947 112.425C44.6834 115.745 44.6834 121.138 47.9947 124.458L80.3279 156.877Z" fill="#1E3A8A"/>
<path d="M335.664 209.64L320.184 188.828C315.597 189.745 311.125 190.204 306.768 190.204C295.416 190.204 284.981 187.567 275.464 182.292C266.061 177.017 258.551 169.679 252.932 160.276C247.428 150.759 244.676 140.095 244.676 128.284C244.676 116.473 247.428 105.867 252.932 96.464C258.551 87.0613 266.061 79.7227 275.464 74.448C284.981 69.1733 295.416 66.536 306.768 66.536C318.12 66.536 328.497 69.1733 337.9 74.448C347.417 79.7227 354.871 87.0613 360.26 96.464C365.764 105.867 368.516 116.473 368.516 128.284C368.516 138.604 366.395 148.064 362.152 156.664C358.024 165.149 352.233 172.201 344.78 177.82L371.268 209.64H335.664ZM274.776 128.284C274.776 138.948 277.643 147.491 283.376 153.912C289.224 160.219 297.021 163.372 306.768 163.372C316.4 163.372 324.083 160.161 329.816 153.74C335.664 147.319 338.588 138.833 338.588 128.284C338.588 117.62 335.664 109.135 329.816 102.828C324.083 96.4067 316.4 93.196 306.768 93.196C297.021 93.196 289.224 96.3493 283.376 102.656C277.643 108.963 274.776 117.505 274.776 128.284ZM412.735 164.748H454.359V189H379.883V165.608L419.787 117.276H380.227V93.024H453.499V116.416L412.735 164.748ZM499.955 61.72V189H470.543V61.72H499.955ZM619.309 93.024L559.109 234.58H527.461L549.477 185.732L510.433 93.024H543.285L565.473 153.052L587.489 93.024H619.309Z" fill="#1E3A8A"/>
<path d="M66.3494 316H60.2926L73.902 278.182H80.4943L94.1037 316H88.0469L77.3551 285.051H77.0597L66.3494 316ZM67.3651 301.19H87.0128V305.991H67.3651V301.19ZM99.1218 326.636V287.636H104.514V292.234H104.975C105.296 291.643 105.757 290.96 106.36 290.185C106.964 289.409 107.801 288.732 108.872 288.153C109.943 287.562 111.359 287.267 113.119 287.267C115.409 287.267 117.452 287.846 119.25 289.003C121.047 290.16 122.457 291.828 123.478 294.007C124.512 296.186 125.029 298.808 125.029 301.874C125.029 304.939 124.519 307.567 123.497 309.759C122.475 311.937 121.072 313.618 119.287 314.8C117.502 315.969 115.464 316.554 113.174 316.554C111.451 316.554 110.041 316.265 108.946 315.686C107.862 315.107 107.013 314.43 106.397 313.655C105.782 312.879 105.308 312.19 104.975 311.587H104.643V326.636H99.1218ZM104.532 301.818C104.532 303.812 104.822 305.561 105.4 307.062C105.979 308.564 106.816 309.74 107.912 310.589C109.007 311.427 110.349 311.845 111.937 311.845C113.587 311.845 114.966 311.408 116.074 310.534C117.181 309.648 118.019 308.447 118.585 306.933C119.163 305.419 119.453 303.714 119.453 301.818C119.453 299.947 119.17 298.267 118.603 296.777C118.049 295.287 117.212 294.112 116.092 293.25C114.984 292.388 113.599 291.957 111.937 291.957C110.337 291.957 108.983 292.37 107.875 293.195C106.779 294.019 105.948 295.17 105.382 296.648C104.815 298.125 104.532 299.848 104.532 301.818ZM131.216 316V287.636H136.552V292.142H136.848C137.365 290.616 138.276 289.415 139.581 288.541C140.898 287.655 142.387 287.212 144.049 287.212C144.394 287.212 144.8 287.224 145.268 287.249C145.748 287.273 146.124 287.304 146.395 287.341V292.622C146.173 292.561 145.779 292.493 145.213 292.419C144.646 292.333 144.08 292.29 143.514 292.29C142.209 292.29 141.046 292.567 140.024 293.121C139.014 293.662 138.214 294.42 137.623 295.392C137.032 296.352 136.737 297.448 136.737 298.679V316H131.216ZM162.381 316.572C159.587 316.572 157.18 315.975 155.161 314.781C153.155 313.575 151.603 311.882 150.508 309.703C149.424 307.512 148.883 304.945 148.883 302.003C148.883 299.098 149.424 296.537 150.508 294.321C151.603 292.105 153.13 290.375 155.087 289.132C157.057 287.889 159.359 287.267 161.994 287.267C163.594 287.267 165.145 287.532 166.647 288.061C168.149 288.59 169.497 289.421 170.691 290.554C171.885 291.687 172.827 293.158 173.516 294.967C174.206 296.765 174.55 298.95 174.55 301.523V303.48H152.004V299.344H169.14C169.14 297.891 168.844 296.605 168.254 295.484C167.663 294.352 166.832 293.459 165.761 292.807C164.702 292.154 163.459 291.828 162.031 291.828C160.479 291.828 159.125 292.21 157.968 292.973C156.823 293.724 155.937 294.709 155.309 295.928C154.693 297.134 154.386 298.445 154.386 299.861V303.092C154.386 304.988 154.718 306.601 155.383 307.93C156.06 309.26 157.002 310.276 158.208 310.977C159.415 311.667 160.824 312.011 162.437 312.011C163.483 312.011 164.437 311.864 165.299 311.568C166.161 311.26 166.906 310.805 167.533 310.202C168.161 309.598 168.641 308.854 168.974 307.967L174.2 308.909C173.781 310.448 173.03 311.796 171.947 312.953C170.876 314.098 169.528 314.991 167.903 315.631C166.29 316.259 164.45 316.572 162.381 316.572ZM186.198 299.159V316H180.676V287.636H185.976V292.253H186.327C186.98 290.751 188.001 289.545 189.392 288.634C190.796 287.723 192.562 287.267 194.692 287.267C196.625 287.267 198.318 287.673 199.77 288.486C201.223 289.286 202.349 290.48 203.15 292.068C203.95 293.656 204.35 295.62 204.35 297.959V316H198.828V298.624C198.828 296.568 198.293 294.961 197.222 293.804C196.151 292.634 194.68 292.05 192.809 292.05C191.528 292.05 190.39 292.327 189.392 292.881C188.408 293.435 187.626 294.247 187.047 295.318C186.481 296.377 186.198 297.657 186.198 299.159ZM222.373 316.554C220.083 316.554 218.039 315.969 216.242 314.8C214.457 313.618 213.053 311.937 212.032 309.759C211.022 307.567 210.517 304.939 210.517 301.874C210.517 298.808 211.028 296.186 212.05 294.007C213.084 291.828 214.5 290.16 216.297 289.003C218.095 287.846 220.132 287.267 222.409 287.267C224.17 287.267 225.586 287.562 226.657 288.153C227.74 288.732 228.577 289.409 229.168 290.185C229.771 290.96 230.239 291.643 230.571 292.234H230.904V278.182H236.425V316H231.033V311.587H230.571C230.239 312.19 229.759 312.879 229.131 313.655C228.516 314.43 227.666 315.107 226.583 315.686C225.499 316.265 224.096 316.554 222.373 316.554ZM223.591 311.845C225.179 311.845 226.521 311.427 227.617 310.589C228.725 309.74 229.562 308.564 230.128 307.062C230.707 305.561 230.996 303.812 230.996 301.818C230.996 299.848 230.713 298.125 230.147 296.648C229.58 295.17 228.749 294.019 227.654 293.195C226.558 292.37 225.204 291.957 223.591 291.957C221.929 291.957 220.544 292.388 219.436 293.25C218.328 294.112 217.491 295.287 216.925 296.777C216.371 298.267 216.094 299.947 216.094 301.818C216.094 303.714 216.377 305.419 216.944 306.933C217.51 308.447 218.347 309.648 219.455 310.534C220.575 311.408 221.954 311.845 223.591 311.845ZM256.53 316.572C253.735 316.572 251.329 315.975 249.31 314.781C247.303 313.575 245.752 311.882 244.656 309.703C243.573 307.512 243.031 304.945 243.031 302.003C243.031 299.098 243.573 296.537 244.656 294.321C245.752 292.105 247.278 290.375 249.236 289.132C251.205 287.889 253.508 287.267 256.142 287.267C257.742 287.267 259.294 287.532 260.795 288.061C262.297 288.59 263.645 289.421 264.839 290.554C266.034 291.687 266.975 293.158 267.665 294.967C268.354 296.765 268.699 298.95 268.699 301.523V303.48H246.152V299.344H263.288C263.288 297.891 262.993 296.605 262.402 295.484C261.811 294.352 260.98 293.459 259.909 292.807C258.85 292.154 257.607 291.828 256.179 291.828C254.628 291.828 253.274 292.21 252.116 292.973C250.972 293.724 250.085 294.709 249.457 295.928C248.842 297.134 248.534 298.445 248.534 299.861V303.092C248.534 304.988 248.866 306.601 249.531 307.93C250.208 309.26 251.15 310.276 252.357 310.977C253.563 311.667 254.973 312.011 256.585 312.011C257.632 312.011 258.586 311.864 259.447 311.568C260.309 311.26 261.054 310.805 261.682 310.202C262.31 309.598 262.79 308.854 263.122 307.967L268.348 308.909C267.929 310.448 267.179 311.796 266.095 312.953C265.024 314.098 263.676 314.991 262.051 315.631C260.438 316.259 258.598 316.572 256.53 316.572ZM274.825 316V287.636H280.162V292.142H280.457C280.974 290.616 281.885 289.415 283.19 288.541C284.507 287.655 285.997 287.212 287.659 287.212C288.003 287.212 288.41 287.224 288.877 287.249C289.358 287.273 289.733 287.304 290.004 287.341V292.622C289.782 292.561 289.388 292.493 288.822 292.419C288.256 292.333 287.69 292.29 287.123 292.29C285.818 292.29 284.655 292.567 283.633 293.121C282.624 293.662 281.824 294.42 281.233 295.392C280.642 296.352 280.346 297.448 280.346 298.679V316H274.825ZM322.042 287.636V292.068H306.014V287.636H322.042ZM310.409 316V284.349C310.409 282.577 310.797 281.106 311.572 279.936C312.348 278.754 313.376 277.874 314.656 277.295C315.936 276.705 317.327 276.409 318.829 276.409C319.937 276.409 320.885 276.501 321.673 276.686C322.461 276.858 323.046 277.018 323.427 277.166L322.135 281.635C321.876 281.561 321.544 281.475 321.137 281.376C320.731 281.266 320.239 281.21 319.66 281.21C318.318 281.21 317.358 281.543 316.779 282.207C316.213 282.872 315.93 283.832 315.93 285.088V316H310.409ZM327.739 316V287.636H333.26V316H327.739ZM330.527 283.26C329.567 283.26 328.742 282.94 328.053 282.3C327.376 281.647 327.037 280.872 327.037 279.973C327.037 279.062 327.376 278.286 328.053 277.646C328.742 276.994 329.567 276.668 330.527 276.668C331.488 276.668 332.306 276.994 332.983 277.646C333.673 278.286 334.017 279.062 334.017 279.973C334.017 280.872 333.673 281.647 332.983 282.3C332.306 282.94 331.488 283.26 330.527 283.26ZM352.636 316.572C349.89 316.572 347.527 315.951 345.545 314.707C343.575 313.452 342.061 311.722 341.002 309.518C339.943 307.315 339.414 304.791 339.414 301.947C339.414 299.067 339.956 296.525 341.039 294.321C342.122 292.105 343.649 290.375 345.619 289.132C347.588 287.889 349.909 287.267 352.58 287.267C354.735 287.267 356.655 287.667 358.342 288.467C360.028 289.255 361.388 290.363 362.423 291.791C363.469 293.219 364.091 294.887 364.288 296.795H358.914C358.619 295.466 357.942 294.321 356.883 293.361C355.836 292.401 354.433 291.92 352.673 291.92C351.134 291.92 349.786 292.327 348.629 293.139C347.484 293.939 346.591 295.084 345.951 296.574C345.311 298.051 344.991 299.799 344.991 301.818C344.991 303.886 345.305 305.671 345.933 307.173C346.56 308.675 347.447 309.839 348.592 310.663C349.749 311.488 351.109 311.901 352.673 311.901C353.719 311.901 354.667 311.71 355.516 311.328C356.378 310.934 357.098 310.374 357.677 309.648C358.268 308.921 358.68 308.047 358.914 307.026H364.288C364.091 308.86 363.494 310.497 362.496 311.938C361.499 313.378 360.164 314.51 358.489 315.335C356.827 316.16 354.876 316.572 352.636 316.572ZM382.14 316.572C379.48 316.572 377.16 315.963 375.178 314.744C373.196 313.526 371.657 311.821 370.561 309.629C369.466 307.438 368.918 304.877 368.918 301.947C368.918 299.005 369.466 296.432 370.561 294.229C371.657 292.025 373.196 290.314 375.178 289.095C377.16 287.876 379.48 287.267 382.14 287.267C384.799 287.267 387.119 287.876 389.101 289.095C391.083 290.314 392.622 292.025 393.718 294.229C394.813 296.432 395.361 299.005 395.361 301.947C395.361 304.877 394.813 307.438 393.718 309.629C392.622 311.821 391.083 313.526 389.101 314.744C387.119 315.963 384.799 316.572 382.14 316.572ZM382.158 311.938C383.882 311.938 385.31 311.482 386.442 310.571C387.575 309.66 388.412 308.447 388.953 306.933C389.507 305.419 389.784 303.751 389.784 301.929C389.784 300.119 389.507 298.457 388.953 296.943C388.412 295.417 387.575 294.192 386.442 293.268C385.31 292.345 383.882 291.884 382.158 291.884C380.422 291.884 378.982 292.345 377.837 293.268C376.704 294.192 375.861 295.417 375.307 296.943C374.766 298.457 374.495 300.119 374.495 301.929C374.495 303.751 374.766 305.419 375.307 306.933C375.861 308.447 376.704 309.66 377.837 310.571C378.982 311.482 380.422 311.938 382.158 311.938ZM419.491 304.237V287.636H425.031V316H419.602V311.088H419.307C418.654 312.602 417.608 313.864 416.168 314.874C414.74 315.871 412.961 316.369 410.831 316.369C409.009 316.369 407.396 315.969 405.993 315.169C404.602 314.357 403.506 313.156 402.706 311.568C401.918 309.98 401.524 308.017 401.524 305.678V287.636H407.045V305.013C407.045 306.946 407.581 308.484 408.652 309.629C409.723 310.774 411.114 311.347 412.825 311.347C413.859 311.347 414.887 311.088 415.909 310.571C416.943 310.054 417.799 309.272 418.476 308.226C419.165 307.179 419.504 305.85 419.491 304.237ZM459.71 287.636V292.068H443.682V287.636H459.71ZM448.077 316V284.349C448.077 282.577 448.464 281.106 449.24 279.936C450.016 278.754 451.044 277.874 452.324 277.295C453.604 276.705 454.995 276.409 456.497 276.409C457.605 276.409 458.553 276.501 459.341 276.686C460.129 276.858 460.714 277.018 461.095 277.166L459.803 281.635C459.544 281.561 459.212 281.475 458.805 281.376C458.399 281.266 457.907 281.21 457.328 281.21C455.986 281.21 455.026 281.543 454.447 282.207C453.881 282.872 453.598 283.832 453.598 285.088V316H448.077ZM472.798 316.628C471.001 316.628 469.376 316.295 467.923 315.631C466.47 314.954 465.319 313.975 464.47 312.695C463.633 311.414 463.214 309.845 463.214 307.986C463.214 306.385 463.522 305.068 464.137 304.034C464.753 303 465.584 302.181 466.63 301.578C467.677 300.975 468.846 300.519 470.139 300.212C471.431 299.904 472.749 299.67 474.091 299.51C475.789 299.313 477.168 299.153 478.227 299.03C479.286 298.894 480.055 298.679 480.535 298.384C481.015 298.088 481.255 297.608 481.255 296.943V296.814C481.255 295.201 480.8 293.952 479.889 293.065C478.99 292.179 477.648 291.736 475.863 291.736C474.004 291.736 472.539 292.148 471.468 292.973C470.41 293.786 469.677 294.69 469.271 295.688L464.082 294.506C464.698 292.782 465.596 291.391 466.778 290.332C467.972 289.261 469.345 288.486 470.896 288.006C472.447 287.513 474.078 287.267 475.789 287.267C476.922 287.267 478.122 287.402 479.39 287.673C480.671 287.932 481.865 288.412 482.973 289.114C484.093 289.815 485.01 290.819 485.724 292.124C486.438 293.416 486.795 295.097 486.795 297.165V316H481.403V312.122H481.181C480.824 312.836 480.289 313.538 479.575 314.227C478.861 314.917 477.944 315.489 476.824 315.945C475.703 316.4 474.361 316.628 472.798 316.628ZM473.998 312.196C475.525 312.196 476.83 311.894 477.913 311.291C479.009 310.688 479.84 309.9 480.406 308.928C480.984 307.943 481.274 306.89 481.274 305.77V302.114C481.077 302.311 480.695 302.495 480.129 302.668C479.575 302.828 478.941 302.969 478.227 303.092C477.513 303.203 476.817 303.308 476.14 303.406C475.463 303.492 474.897 303.566 474.441 303.628C473.37 303.763 472.392 303.991 471.505 304.311C470.631 304.631 469.93 305.093 469.4 305.696C468.883 306.287 468.625 307.075 468.625 308.06C468.625 309.426 469.129 310.46 470.139 311.162C471.148 311.851 472.435 312.196 473.998 312.196ZM473.795 283.851L478.116 275.338H483.933L478.208 283.851H473.795ZM506.097 316.572C503.351 316.572 500.988 315.951 499.006 314.707C497.036 313.452 495.522 311.722 494.463 309.518C493.404 307.315 492.875 304.791 492.875 301.947C492.875 299.067 493.417 296.525 494.5 294.321C495.583 292.105 497.11 290.375 499.08 289.132C501.049 287.889 503.37 287.267 506.041 287.267C508.196 287.267 510.116 287.667 511.803 288.467C513.489 289.255 514.849 290.363 515.884 291.791C516.93 293.219 517.552 294.887 517.749 296.795H512.375C512.08 295.466 511.402 294.321 510.344 293.361C509.297 292.401 507.894 291.92 506.134 291.92C504.595 291.92 503.247 292.327 502.089 293.139C500.945 293.939 500.052 295.084 499.412 296.574C498.772 298.051 498.452 299.799 498.452 301.818C498.452 303.886 498.766 305.671 499.393 307.173C500.021 308.675 500.908 309.839 502.053 310.663C503.21 311.488 504.57 311.901 506.134 311.901C507.18 311.901 508.128 311.71 508.977 311.328C509.839 310.934 510.559 310.374 511.138 309.648C511.729 308.921 512.141 308.047 512.375 307.026H517.749C517.552 308.86 516.955 310.497 515.957 311.938C514.96 313.378 513.625 314.51 511.95 315.335C510.288 316.16 508.337 316.572 506.097 316.572ZM523.653 316V287.636H529.174V316H523.653ZM526.441 283.26C525.481 283.26 524.656 282.94 523.967 282.3C523.29 281.647 522.951 280.872 522.951 279.973C522.951 279.062 523.29 278.286 523.967 277.646C524.656 276.994 525.481 276.668 526.441 276.668C527.402 276.668 528.22 276.994 528.897 277.646C529.587 278.286 529.931 279.062 529.931 279.973C529.931 280.872 529.587 281.647 528.897 282.3C528.22 282.94 527.402 283.26 526.441 283.26ZM542.124 278.182V316H536.602V278.182H542.124ZM553.189 316.351C552.18 316.351 551.312 315.994 550.586 315.28C549.859 314.554 549.496 313.679 549.496 312.658C549.496 311.648 549.859 310.786 550.586 310.072C551.312 309.346 552.18 308.983 553.189 308.983C554.199 308.983 555.067 309.346 555.793 310.072C556.519 310.786 556.882 311.648 556.882 312.658C556.882 313.335 556.71 313.956 556.365 314.523C556.033 315.077 555.59 315.52 555.036 315.852C554.482 316.185 553.866 316.351 553.189 316.351Z" fill="#6B7280"/>
</svg>
